<?xml version="1.0" standalone="no"?>
<!DOCTYPE svg PUBLIC "-//W3C//DTD SVG 20010904//EN"
 "http://www.w3.org/TR/2001/REC-SVG-20010904/DTD/svg10.dtd">
<svg version="1.0" xmlns="http://www.w3.org/2000/svg"
 width="400.000000pt" height="400.000000pt" viewBox="0 0 400.000000 400.000000"
 preserveAspectRatio="xMidYMid meet">
<metadata>
Created by potrace 1.14, written by Peter Selinger 2001-2017
</metadata>
<g transform="translate(0.000000,400.000000) scale(0.100000,-0.100000)"
fill="#000000" stroke="none">
<path d="M340 2859 l0 -40 138 -66 c340 -162 468 -225 617 -308 88 -49 178
-97 200 -108 103 -51 304 -195 379 -273 31 -31 162 -144 168 -144 2 0 -70 76
-161 168 -105 107 -207 199 -276 250 -163 121 -481 295 -790 433 -77 34 -170
77 -207 96 l-68 33 0 -41z"/>
<path d="M3600 2877 c-14 -6 -56 -25 -95 -43 -151 -68 -468 -224 -511 -251
-148 -92 -208 -132 -283 -187 -94 -68 -262 -216 -331 -290 -25 -27 -73 -77
-107 -112 -34 -35 -60 -64 -57 -64 12 0 81 53 133 102 31 29 88 78 126 109 39
30 102 80 140 110 173 136 432 283 730 413 327 143 305 129 305 199 0 29 -10
32 -50 14z"/>
<path d="M361 2699 c21 -90 28 -106 56 -132 41 -36 355 -175 503 -222 83 -26
213 -79 202 -83 -5 -1 -47 11 -93 28 -46 18 -111 40 -144 50 -93 28 -311 113
-405 159 -47 22 -86 41 -86 41 -4 0 19 -92 37 -147 22 -68 33 -81 81 -94 18
-5 92 -24 163 -44 72 -19 159 -42 195 -50 36 -8 113 -26 172 -39 59 -14 163
-32 230 -41 124 -16 212 -34 205 -42 -6 -5 -302 34 -392 52 -242 49 -478 107
-543 135 -28 12 -56 20 -62 18 -11 -3 97 -189 128 -220 31 -31 241 -49 637
-55 331 -5 395 -10 395 -31 0 -8 -257 -7 -620 3 -196 5 -236 8 -323 20 l-39 5
49 -56 48 -56 80 9 c97 10 844 11 900 1 l40 -7 -25 21 c-14 11 -47 40 -75 65
-90 81 -457 353 -475 353 -4 0 -47 23 -96 52 -191 111 -232 132 -324 176 -52
24 -146 69 -209 98 -62 30 -115 54 -117 54 -2 0 -26 14 -54 30 -28 17 -52 30
-54 30 -2 0 5 -36 15 -81z"/>
<path d="M3600 2744 c-36 -20 -210 -99 -309 -140 -92 -38 -267 -128 -291 -149
-8 -7 -67 -43 -130 -80 -63 -37 -142 -92 -175 -123 -93 -87 -168 -149 -301
-248 l-122 -90 407 0 c228 1 424 -3 446 -9 60 -14 -166 -25 -512 -24 -155 0
-303 -3 -330 -7 l-48 -7 50 -14 c28 -8 91 -25 140 -38 74 -19 83 -24 51 -24
-21 -1 -84 11 -140 25 -94 25 -102 29 -118 61 -10 18 -18 40 -18 47 0 16 -65
76 -82 76 -7 0 3 -13 22 -30 37 -31 35 -40 -3 -15 -13 8 -39 17 -58 19 -19 3
-47 8 -61 11 -15 4 -42 2 -61 -4 -42 -14 -117 -81 -117 -105 0 -15 -7 -17 -52
-11 -29 3 -262 7 -518 9 -256 2 -472 6 -481 10 -8 4 13 -24 48 -61 34 -37 63
-71 63 -75 0 -5 6 -8 14 -8 7 0 34 -18 59 -40 25 -22 50 -40 57 -40 6 0 21 -5
33 -12 21 -11 21 -11 2 -20 -18 -7 -17 -8 3 -4 21 4 73 -11 112 -33 9 -5 56
-21 105 -35 50 -15 97 -30 105 -33 8 -4 26 -8 40 -9 14 -2 52 -12 84 -24 33
-11 69 -20 80 -20 17 0 18 -2 6 -10 -13 -8 -12 -10 3 -10 27 0 21 -39 -15 -95
-45 -67 -150 -151 -213 -169 -27 -8 -95 -26 -150 -41 -108 -30 -155 -50 -155
-65 0 -15 41 -12 75 6 17 9 84 31 150 49 66 18 138 41 160 50 22 10 44 17 48
16 10 -2 33 20 35 34 4 19 103 125 113 120 5 -4 9 -17 9 -29 0 -13 7 -29 14
-36 8 -6 20 -27 26 -46 6 -19 15 -34 19 -34 5 0 24 -26 44 -58 44 -71 110
-134 171 -163 47 -21 63 -36 81 -73 11 -22 55 -36 55 -17 0 18 -5 26 -12 23
-5 -1 -8 6 -8 15 0 13 3 14 12 5 16 -16 28 -15 28 2 0 8 19 25 43 39 23 14 54
38 68 54 34 37 99 131 99 142 0 5 6 14 14 20 8 7 18 25 21 41 9 40 25 51 52
37 21 -12 23 -14 23 -39 0 -10 2 -10 9 0 6 10 14 6 34 -17 43 -52 180 -119
330 -162 165 -47 229 -59 255 -45 23 12 22 13 -29 19 -53 6 -62 8 -124 22 -68
16 -126 39 -231 90 -90 43 -121 64 -162 110 -29 31 -52 60 -52 65 0 5 16 4 36
-1 77 -22 92 12 39 91 -38 57 -38 73 3 65 15 -3 21 -2 15 1 -26 12 -11 22 55
39 90 24 390 166 432 205 18 17 75 62 125 100 85 64 195 171 195 190 0 4 -19
4 -42 -1 -133 -24 -923 -50 -902 -29 7 7 137 15 330 20 324 10 497 22 591 41
46 9 57 17 104 74 29 35 70 93 90 128 l37 66 -44 -20 c-93 -39 -451 -135 -694
-184 -144 -30 -185 -35 -169 -21 2 2 76 18 164 35 208 42 719 186 748 211 11
9 58 193 51 199 -2 3 -34 -10 -69 -28 -36 -18 -114 -49 -173 -70 -59 -21 -125
-46 -147 -55 -22 -10 -69 -26 -105 -36 -36 -10 -153 -55 -260 -100 -230 -96
-252 -104 -145 -51 104 51 269 119 535 221 257 98 356 143 357 161 1 8 8 41
16 74 32 128 33 125 -13 99z m-1532 -866 c2 -9 -6 -22 -18 -28 -18 -9 -25 -8
-41 6 -20 18 -20 19 -2 32 23 17 57 12 61 -10z m-1138 -64 c0 -3 -13 4 -30 16
-16 12 -30 24 -30 26 0 3 14 -4 30 -16 17 -12 30 -24 30 -26z m900 -64 c-11
-16 -41 -44 -66 -62 -25 -18 -55 -49 -66 -70 -12 -21 -24 -36 -26 -33 -2 2 5
20 16 40 25 41 23 42 -35 14 -56 -27 -146 -35 -225 -19 -86 16 -231 59 -242
70 -15 15 7 12 51 -5 31 -12 120 -33 247 -60 25 -5 121 12 176 32 25 9 71 40
103 70 66 60 103 73 67 23z m414 -11 c-3 -5 1 -6 9 -3 9 3 27 -11 47 -35 17
-23 27 -41 21 -41 -5 0 -13 5 -16 10 -4 6 -15 8 -25 5 -13 -4 -23 1 -32 14 -7
12 -16 21 -21 21 -4 0 -6 -4 -3 -9 4 -5 -2 -7 -13 -4 -10 3 -22 0 -25 -6 -7
-11 -46 16 -46 31 0 13 35 9 50 -4 12 -11 12 -10 1 4 -10 14 -9 17 8 23 12 3
21 11 21 17 0 6 6 6 15 -2 8 -7 12 -16 9 -21z m-1147 5 c-3 -3 -12 -4 -19 -1
-8 3 -5 6 6 6 11 1 17 -2 13 -5z m408 -9 l40 -14 -53 -1 c-30 0 -51 4 -48 9 4
5 0 12 -6 14 -31 13 31 5 67 -8z m367 -7 c-7 -7 -12 -8 -12 -2 0 6 3 14 7 17
3 4 9 5 12 2 2 -3 -1 -11 -7 -17z m1043 2 c-3 -5 -12 -10 -18 -10 -7 0 -6 4 3
10 19 12 23 12 15 0z m-792 -30 c5 -20 4 -21 -65 -35 -10 -2 -18 2 -18 7 0 6
-6 5 -15 -2 -14 -12 -20 -7 -16 14 1 5 -4 5 -11 -1 -16 -13 -78 -13 -78 0 0 5
-7 4 -15 -3 -17 -14 -19 -7 -5 19 8 15 24 18 113 19 97 2 105 0 110 -18z m712
-5 c-27 -13 -57 -24 -65 -24 -8 0 10 11 40 24 71 30 90 30 25 0z m-945 11 c0
-3 -4 -8 -10 -11 -5 -3 -10 -1 -10 4 0 6 5 11 10 11 6 0 10 -2 10 -4z m720
-76 c-48 -20 -145 -26 -170 -10 -10 7 8 10 60 11 41 0 84 4 95 9 11 5 29 9 40
9 11 0 0 -9 -25 -19z m-740 -4 c0 -8 -6 -16 -14 -19 -10 -4 -12 0 -9 14 6 22
23 26 23 5z m499 -91 c-1 -18 -28 49 -28 70 0 11 6 2 14 -20 8 -22 14 -44 14
-50z m-124 55 c3 -5 -1 -10 -9 -10 -9 0 -16 5 -16 10 0 6 4 10 9 10 6 0 13 -4
16 -10z m-195 -30 c0 -11 -7 -20 -15 -20 -15 0 -21 21 -8 33 12 13 23 7 23
-13z m411 -67 c13 -16 12 -17 -3 -4 -10 7 -18 15 -18 17 0 8 8 3 21 -13z m-61
-63 c0 -13 -1 -13 -10 0 -5 8 -10 22 -10 30 0 13 1 13 10 0 5 -8 10 -22 10
-30z m105 -85 c22 -13 36 -24 30 -25 -5 0 -28 11 -50 25 -22 13 -35 24 -30 25
6 0 28 -11 50 -25z"/>
<path d="M2068 2003 c6 -2 18 -2 25 0 6 3 1 5 -13 5 -14 0 -19 -2 -12 -5z"/>
<path d="M2013 885 c3 -11 9 -33 13 -48 7 -31 29 -32 29 -1 0 10 5 22 10 26 6
5 4 8 -4 8 -8 0 -23 8 -34 18 -19 16 -19 16 -14 -3z"/>
</g>
</svg>
